<?xml version="1.0" encoding="UTF-8" standalone="no"?>
<!-- Created with Inkscape (http://www.inkscape.org/) -->

<svg
   xmlns:dc="http://purl.org/dc/elements/1.1/"
   xmlns:cc="http://creativecommons.org/ns#"
   xmlns:rdf="http://www.w3.org/1999/02/22-rdf-syntax-ns#"
   xmlns:svg="http://www.w3.org/2000/svg"
   xmlns="http://www.w3.org/2000/svg"
   xmlns:xlink="http://www.w3.org/1999/xlink"
   xmlns:sodipodi="http://sodipodi.sourceforge.net/DTD/sodipodi-0.dtd"
   xmlns:inkscape="http://www.inkscape.org/namespaces/inkscape"
   width="210mm"
   height="297mm"
   viewBox="0 0 210 297"
   version="1.1"
   id="svg8"
   inkscape:version="0.92.3 (2405546, 2018-03-11)"
   sodipodi:docname="water delta.svg"
   inkscape:export-filename="C:\Users\Ureridu\Documents\Python Scripts\mycenae\resources\water beta2.png"
   inkscape:export-xdpi="96"
   inkscape:export-ydpi="96">
  <defs
     id="defs2">
    <linearGradient
       inkscape:collect="always"
       id="linearGradient3801">
      <stop
         style="stop-color:#003380;stop-opacity:1;"
         offset="0"
         id="stop3797" />
      <stop
         style="stop-color:#003380;stop-opacity:0;"
         offset="1"
         id="stop3799" />
    </linearGradient>
    <linearGradient
       inkscape:collect="always"
       xlink:href="#linearGradient3801"
       id="linearGradient3803"
       x1="370"
       y1="494.66254"
       x2="455.71429"
       y2="371.09113"
       gradientUnits="userSpaceOnUse"
       gradientTransform="matrix(0.53205689,0,0,0.76448388,-90.903208,-251.51813)" />
  </defs>
  <sodipodi:namedview
     id="base"
     pagecolor="#ffffff"
     bordercolor="#666666"
     borderopacity="1.0"
     inkscape:pageopacity="0.0"
     inkscape:pageshadow="2"
     inkscape:zoom="0.35"
     inkscape:cx="306.96915"
     inkscape:cy="592.03772"
     inkscape:document-units="mm"
     inkscape:current-layer="layer1"
     showgrid="false"
     inkscape:window-width="1208"
     inkscape:window-height="745"
     inkscape:window-x="542"
     inkscape:window-y="41"
     inkscape:window-maximized="0" />
  <metadata
     id="metadata5">
    <rdf:RDF>
      <cc:Work
         rdf:about="">
        <dc:format>image/svg+xml</dc:format>
        <dc:type
           rdf:resource="http://purl.org/dc/dcmitype/StillImage" />
        <dc:title></dc:title>
      </cc:Work>
    </rdf:RDF>
  </metadata>
  <g
     inkscape:label="Layer 1"
     inkscape:groupmode="layer"
     id="layer1">
    <path
       style="fill:url(#linearGradient3803);fill-opacity:1;stroke-width:0.22777455"
       d="M 101.23515,177.86585 C 90.134305,176.93966 80.543884,166.939 74.607412,150.09911 c -2.002827,-5.68137 -2.676565,-9.87398 -2.684402,-16.70481 -0.01086,-9.52637 1.258714,-13.84581 6.104087,-20.76655 1.320457,-1.88603 3.067658,-4.13965 3.882673,-5.00803 3.082657,-3.28458 9.371214,-6.82066 15.0787,-8.478823 3.66039,-1.063471 5.89507,-1.328752 9.75596,-1.158249 7.38418,0.326109 12.76786,3.043512 16.5058,8.331242 1.41727,2.00488 3.12376,5.2872 3.62742,6.97712 0.85612,2.87246 1.23093,9.40967 0.75448,13.15913 -0.30184,2.37546 -1.54881,6.76372 -2.65757,9.35244 -1.81878,4.24649 -3.91155,6.87564 -7.54496,9.47874 -2.93132,2.1001 -4.11213,2.43961 -8.49863,2.44359 l -3.80041,0.003 -1.03486,-0.78256 c -2.03349,-1.53774 -4.17133,-5.06441 -5.37845,-8.87256 l -0.57443,-1.81213 -0.26601,1.09209 c -1.064781,4.37144 -0.50106,9.40545 1.38313,12.35133 2.95784,4.62449 9.39575,5.6326 16.23879,2.54283 2.93947,-1.32724 6.30763,-4.48711 9.21021,-8.64065 4.65963,-6.66788 6.99223,-14.73129 6.98239,-24.13697 -0.005,-4.72114 -0.35544,-7.00691 -1.65373,-10.78468 -2.67964,-7.79724 -8.82493,-13.407216 -17.21121,-15.711957 -1.97391,-0.54249 -2.58952,-0.586491 -6.36569,-0.455103 -5.57686,0.193871 -9.12167,1.043531 -14.061498,3.369828 -7.555261,3.558018 -13.844885,9.662022 -21.757321,21.115302 -4.038393,5.84557 -6.760677,12.29865 -12.067205,20.11583 -5.503484,8.10736 -2.690549,4.72505 -7.295369,11.64593 -1.860077,2.79563 -8.756286,8.5859 -10.251148,9.67433 l 0.702803,11.34253 -0.702803,-11.34253 c 0,0 -0.972952,-10.69437 -0.652951,-10.94936 0.578158,-0.46075 2.521242,-3.23198 3.470106,-4.94911 1.934336,-3.50049 5.070055,-10.77756 7.235432,-16.79133 0.459601,-1.27642 1.921321,-4.65515 3.248265,-7.50831 7.855331,-16.89037 17.125703,-29.536673 25.623865,-34.955179 4.772545,-3.043016 12.064351,-5.726071 18.241944,-6.712183 2.78185,-0.444072 10.23714,-0.446816 13.20642,-0.0055 3.44902,0.513369 11.47596,2.170599 12.66034,2.613865 5.55991,2.080784 10.53707,7.516505 14.49787,15.833566 1.90503,4.000285 3.65938,10.004881 4.31266,14.760881 0.16598,1.2084 0.2587,3.66821 0.25213,6.68922 -0.009,4.0413 -0.0785,5.17796 -0.45228,7.37181 -2.09012,12.26867 -8.16183,24.76915 -15.49904,31.90944 -4.13638,4.02538 -6.95648,5.68541 -12.35132,7.27056 -3.84145,1.12873 -9.36979,0.17858 -15.01656,-2.58117 -5.173636,-2.52838 -9.220055,-8.33215 -11.809704,-16.9386 -1.798305,-5.97649 -1.823992,-8.80483 -0.126166,-13.88854 2.337715,-6.99965 7.178378,-10.19144 15.55121,-10.25396 5.40654,-0.0404 7.29197,0.51416 8.0826,2.3773 0.48989,1.15443 0.47017,1.62464 -0.10963,2.61468 -0.84071,1.4356 -2.15167,1.92901 -5.06216,1.90527 -2.59592,-0.0203 -3.90581,0.28228 -4.42242,1.0246 -0.39442,0.56675 -0.36963,1.09265 0.0821,1.7417 1.26175,1.81291 5.18002,2.36116 8.70187,1.21752 2.26102,-0.73422 3.51455,-2.17386 4.13188,-4.74531 0.41617,-1.73358 0.5549,-4.31047 0.30371,-5.64133 -0.43401,-2.29937 -2.17287,-4.66145 -4.21023,-5.71917 -3.92657,-2.03853 -10.70125,-1.36335 -18.233837,1.8172 -2.235619,0.94396 -3.240584,1.86561 -5.285072,4.84695 -2.580725,3.76325 -4.577507,8.59459 -5.376365,13.00846 -0.507911,2.80632 -0.555743,7.57905 -0.105352,10.51165 0.620207,4.03823 2.552823,8.68556 5.011139,12.05016 3.154661,4.31764 8.371948,8.64155 12.915427,10.70383 4.00479,1.81779 11.9166,1.57968 17.91288,-0.53905 4.46402,-1.57734 9.26219,-4.66272 12.58336,-8.09151 6.8159,-7.0368 16.48599,-20.92607 25.96795,-37.29812 1.70637,-2.9463 3.16002,-5.44233 3.23034,-5.54669 0.17274,-0.25629 5.65357,5.49346 5.58146,5.85545 -0.0831,0.417 -3.77728,6.6117 -6.30543,10.57331 -6.95628,10.9006 -17.20012,24.85027 -21.7606,29.63281 -10.7082,11.22961 -23.90922,17.20384 -35.81883,16.21016 z"
       id="path3787"
       inkscape:connector-curvature="0"
       sodipodi:nodetypes="cscccsscccsscccsccscscsssssssccsccsssscsscccsssscccccsccccscscssscssccsscc" />
  </g>
</svg>
