<?xml version="1.0" encoding="UTF-8" standalone="no"?>
<!-- Created with Inkscape (http://www.inkscape.org/) -->

<svg
   xmlns:dc="http://purl.org/dc/elements/1.1/"
   xmlns:cc="http://creativecommons.org/ns#"
   xmlns:rdf="http://www.w3.org/1999/02/22-rdf-syntax-ns#"
   xmlns:svg="http://www.w3.org/2000/svg"
   xmlns="http://www.w3.org/2000/svg"
   xmlns:xlink="http://www.w3.org/1999/xlink"
   xmlns:sodipodi="http://sodipodi.sourceforge.net/DTD/sodipodi-0.dtd"
   xmlns:inkscape="http://www.inkscape.org/namespaces/inkscape"
   width="210mm"
   height="297mm"
   viewBox="0 0 210 297"
   version="1.1"
   id="svg8"
   inkscape:version="0.92.3 (2405546, 2018-03-11)"
   sodipodi:docname="water beta.svg">
  <defs
     id="defs2">
    <linearGradient
       inkscape:collect="always"
       id="linearGradient3801">
      <stop
         style="stop-color:#003380;stop-opacity:1;"
         offset="0"
         id="stop3797" />
      <stop
         style="stop-color:#003380;stop-opacity:0;"
         offset="1"
         id="stop3799" />
    </linearGradient>
    <linearGradient
       inkscape:collect="always"
       xlink:href="#linearGradient3801"
       id="linearGradient3803"
       x1="370"
       y1="494.66254"
       x2="455.71429"
       y2="371.09113"
       gradientUnits="userSpaceOnUse"
       gradientTransform="matrix(0.53205689,0,0,0.55997943,-90.903208,-136.62683)" />
  </defs>
  <sodipodi:namedview
     id="base"
     pagecolor="#ffffff"
     bordercolor="#666666"
     borderopacity="1.0"
     inkscape:pageopacity="0.0"
     inkscape:pageshadow="2"
     inkscape:zoom="0.35"
     inkscape:cx="315.54058"
     inkscape:cy="592.03772"
     inkscape:document-units="mm"
     inkscape:current-layer="layer1"
     showgrid="false"
     inkscape:window-width="1302"
     inkscape:window-height="859"
     inkscape:window-x="1187"
     inkscape:window-y="36"
     inkscape:window-maximized="0" />
  <metadata
     id="metadata5">
    <rdf:RDF>
      <cc:Work
         rdf:about="">
        <dc:format>image/svg+xml</dc:format>
        <dc:type
           rdf:resource="http://purl.org/dc/dcmitype/StillImage" />
        <dc:title></dc:title>
      </cc:Work>
    </rdf:RDF>
  </metadata>
  <g
     inkscape:label="Layer 1"
     inkscape:groupmode="layer"
     id="layer1">
    <path
       style="fill:url(#linearGradient3803);fill-opacity:1;stroke-width:0.19494274"
       d="M 101.23515,177.89412 C 90.134305,177.21569 80.543884,169.89027 74.607412,157.55517 72.604585,153.3936 71.930847,150.32254 71.92301,145.319 c -0.01086,-6.978 1.258714,-10.14196 6.104087,-15.21136 1.320457,-1.3815 3.067658,-3.03227 3.882673,-3.66835 3.082657,-2.40593 9.371214,-4.99609 15.0787,-6.21068 3.66039,-0.77899 5.89507,-0.9733 9.75596,-0.84841 7.38418,0.23887 12.76786,2.22935 16.5058,6.10258 1.41727,1.46856 3.12376,3.87284 3.62742,5.11069 0.85612,2.10406 1.23093,6.89252 0.75448,9.63898 -0.30184,1.74001 -1.54881,4.95438 -2.65757,6.8506 -1.81878,3.11053 -3.91155,5.03636 -7.54496,6.94312 -2.93132,1.53831 -4.11213,1.78699 -8.49863,1.78991 l -3.80041,0.002 -1.03486,-0.57322 c -2.03349,-1.12638 -4.17133,-3.70965 -5.37845,-6.4991 l -0.57443,-1.32737 -0.26601,0.79995 c -1.064781,3.20205 -0.50106,6.88943 1.38313,9.04727 2.95784,3.38741 9.39575,4.12584 16.23879,1.86261 2.93947,-0.9722 6.30763,-3.28678 9.21021,-6.32923 4.65963,-4.88417 6.99223,-10.79057 6.98239,-17.68017 -0.005,-3.4582 -0.35544,-5.13251 -1.65373,-7.8997 -2.67964,-5.71143 -8.82493,-9.8207 -17.21121,-11.50891 -1.97391,-0.39737 -2.58952,-0.4296 -6.36569,-0.33336 -5.57686,0.14201 -9.12167,0.76438 -14.061498,2.46838 -7.555261,2.60622 -13.844885,7.07737 -21.757321,15.46682 -4.038393,4.28184 -6.760677,9.00868 -12.067205,14.73471 -5.503484,5.93859 -2.690549,3.46107 -7.295369,8.53057 -1.860077,2.04778 -8.756286,6.28912 -10.251148,7.08639 l 0.702803,8.30833 -0.702803,-8.30833 c 0,0 -0.972952,-7.83356 -0.652951,-8.02034 0.578158,-0.33749 2.521242,-2.3674 3.470106,-3.62519 1.934336,-2.56409 5.070055,-7.89449 7.235432,-12.29954 0.459601,-0.93497 1.921321,-3.40987 3.248265,-5.49979 7.855331,-12.37209 17.125703,-21.63542 25.623865,-25.60444 4.772545,-2.22899 12.064351,-4.19431 18.241944,-4.91663 2.78185,-0.32528 10.23714,-0.32729 13.20642,-0.004 3.44902,0.37604 11.47596,1.58995 12.66034,1.91464 5.55991,1.52416 10.53707,5.50579 14.49787,11.59799 1.90503,2.93018 3.65938,7.32851 4.31266,10.81225 0.16598,0.88514 0.2587,2.68694 0.25213,4.89981 -0.009,2.96022 -0.0785,3.79282 -0.45228,5.3998 -2.09012,8.98673 -8.16183,18.14325 -15.49904,23.37346 -4.13638,2.94856 -6.95648,4.16453 -12.35132,5.32564 -3.84145,0.82678 -9.36979,0.1308 -15.01656,-1.89069 -5.173636,-1.85203 -9.220055,-6.10325 -11.809704,-12.40742 -1.798305,-4.37774 -1.823992,-6.44948 -0.126166,-10.17326 2.337715,-5.1272 7.178378,-7.46517 15.55121,-7.51097 5.40654,-0.0296 7.29197,0.37662 8.0826,1.74136 0.48989,0.84561 0.47017,1.19004 -0.10963,1.91524 -0.84071,1.05157 -2.15167,1.41299 -5.06216,1.3956 -2.59592,-0.0148 -3.90581,0.20677 -4.42242,0.75051 -0.39442,0.41513 -0.36963,0.80036 0.0821,1.27578 1.26175,1.32795 5.18002,1.72953 8.70187,0.89182 2.26102,-0.5378 3.51455,-1.59234 4.13188,-3.47591 0.41617,-1.26983 0.5549,-3.15739 0.30371,-4.13223 -0.43401,-1.68428 -2.17287,-3.41448 -4.21023,-4.18925 -3.92657,-1.49321 -10.70125,-0.99865 -18.233837,1.33108 -2.235619,0.69145 -3.240584,1.36655 -5.285072,3.55036 -2.580725,2.75656 -4.577507,6.29548 -5.376365,9.52861 -0.507911,2.05561 -0.555743,5.55161 -0.105352,7.69971 0.620207,2.95798 2.552823,6.36212 5.011139,8.82667 3.154661,3.16264 8.371948,6.32988 12.915427,7.84048 4.00479,1.33153 11.9166,1.15711 17.91288,-0.39485 4.46402,-1.15539 9.26219,-3.41541 12.58336,-5.92697 6.8159,-5.15442 16.48599,-15.32821 25.96795,-27.32063 1.70637,-2.15815 3.16002,-3.98648 3.23034,-4.06292 0.17274,-0.18773 5.65357,4.02393 5.58146,4.28908 -0.0831,0.30545 -3.77728,4.84303 -6.30543,7.74488 -6.95628,7.98462 -17.20012,18.20266 -21.7606,21.70584 -10.7082,8.22562 -23.90922,12.60171 -35.81883,11.87384 z"
       id="path3787"
       inkscape:connector-curvature="0"
       sodipodi:nodetypes="cscccsscccsscccsccscscsssssssccsccsssscsscccsssscccccsccccscscssscssccsscc" />
  </g>
</svg>
